<svg xmlns="http://www.w3.org/2000/svg" viewBox="0 0 512 512" id="halloween-night">
  <path fill="white" d="M317.59,213.83a18.94,18.94,0,0,0,17,18.93A9.16,9.16,0,0,0,337,233h74.56a19.07,19.07,0,0,0,7-36.94,21.84,21.84,0,0,0,1-6.67,23.25,23.25,0,0,0-23.42-23c-.25,0-.5,0-.78,0a27.94,27.94,0,0,0-47.43.12,22.44,22.44,0,0,0-14.61,3.36,23,23,0,0,0-11.06,19.51,22.69,22.69,0,0,0,2.26,9.87A18.65,18.65,0,0,0,317.59,213.83Zm14.12-9.69a4,4,0,0,0,1.47-6,14.68,14.68,0,0,1-2.92-8.78,14.94,14.94,0,0,1,7.28-12.71,14.72,14.72,0,0,1,8-2.29,15.12,15.12,0,0,1,3.54.43,3.93,3.93,0,0,0,4.67-2.23,19.85,19.85,0,0,1,35.7-.25,4,4,0,0,0,4.45,2.24,13.58,13.58,0,0,1,2.21-.19,15.22,15.22,0,0,1,15.4,15,14.22,14.22,0,0,1-2.08,7.39,3.94,3.94,0,0,0-.13,3.89,4,4,0,0,0,3.22,2.17,11.09,11.09,0,0,1-1,22.15l-74.62.12a4.28,4.28,0,0,0-1.21-.29,10.94,10.94,0,0,1-10.11-11A10.71,10.71,0,0,1,331.71,204.14Z"></path>
  <path fill="white" d="M430.36,339.77a4.15,4.15,0,0,0-4.42-1.7,124.21,124.21,0,0,1-33,4.51c-67.62,0-122.61-55-122.61-122.7a121.89,121.89,0,0,1,47.29-96.73,4,4,0,0,0,1.29-4.53c-.61-1.64-2.19-2.35-3.93-2.62A139.85,139.85,0,0,0,181,256a136,136,0,0,0,5.22,37.17,34.81,34.81,0,0,0-5.69,4,44.66,44.66,0,0,0-38-20.44A46.07,46.07,0,0,0,100.6,304a43.7,43.7,0,0,0-3.76,18.34,46.43,46.43,0,0,0,.28,5A33.31,33.31,0,0,0,102.73,387a21.73,21.73,0,0,0,8.06,2H269.11a4,4,0,0,0,2.83-1.17c.27-.27.43-.47.68-.74A138.34,138.34,0,0,0,321.31,396a140.35,140.35,0,0,0,108.78-51.52A4,4,0,0,0,430.36,339.77ZM110.79,381a16,16,0,0,1-5.21-1.46A25.13,25.13,0,0,1,89,355.87a24.8,24.8,0,0,1,14.18-22.78,4,4,0,0,0,2.23-4.36,37.4,37.4,0,0,1-.57-6.43,35.91,35.91,0,0,1,3-15,38.08,38.08,0,0,1,34.6-22.55c14.65,0,27.52,8,33.58,20.93a4,4,0,0,0,3.17,2.28,4.65,4.65,0,0,0,3.62-1.52,28.73,28.73,0,0,1,9.78-8,31.93,31.93,0,0,1,15.8-4.14,32.8,32.8,0,0,1,32.56,33,31.93,31.93,0,0,1-.57,6.37,4,4,0,0,0,1,3.55,4.38,4.38,0,0,0,3.48,1.21,25.74,25.74,0,0,1,29.67,25.17A24.26,24.26,0,0,1,268.27,380a12.82,12.82,0,0,1-.85,1Zm210.52,7a130.33,130.33,0,0,1-43.46-7.39,30.69,30.69,0,0,0,1.6-3.66,30,30,0,0,0,1.25-2.85,32.74,32.74,0,0,0,1.92-10.62A33.63,33.63,0,0,0,249,329.9h-.08c0-.9.08-1.79.08-2.73a40.83,40.83,0,0,0-40.58-41,40.18,40.18,0,0,0-9.12,1.15c-.92.22-1.81.54-2.71.82-1.13.35-2.28.57-3.39,1A128.49,128.49,0,0,1,189,256,131.83,131.83,0,0,1,303.12,125.1a129.67,129.67,0,0,0-40.78,94.78c0,72.08,58.59,130.71,130.63,130.71a130.37,130.37,0,0,0,22.64-2A132.21,132.21,0,0,1,321.31,388Z"></path>
  <path fill="white" d="M214.81 250.07a13.87 13.87 0 1 0 13.89 13.87A13.9 13.9 0 0 0 214.81 250.07zm0 19.73a5.86 5.86 0 1 1 5.87-5.86A5.85 5.85 0 0 1 214.81 269.8zM223.73 197.3a22.79 22.79 0 1 0 22.81 22.78A22.82 22.82 0 0 0 223.73 197.3zm0 37.57a14.78 14.78 0 1 1 14.79-14.79A14.79 14.79 0 0 1 223.73 234.87z"></path>
</svg>