<svg xmlns="http://www.w3.org/2000/svg" viewBox="0 0 64 64" id="halloween-party">
  <g>
    <path fill="white" d="M54 26.308V16c0-7.72-9.869-14-22-14S10 8.28 10 16v10.387a4.772 4.772 0 0 0-1.583 1.063C4.5 31.457 2.253 37.489 2.253 44S4.5 56.543 8.417 60.55A4.941 4.941 0 0 0 11.943 62H52.31a4.946 4.946 0 0 0 3.527-1.45C59.753 56.543 62 50.511 62 44s-2.247-12.543-6.164-16.55A4.771 4.771 0 0 0 54 26.308ZM12 16c0-6.617 8.972-12 20-12s20 5.383 20 12v10h-2V16c0-4.829-7.233-10-18-10s-18 5.171-18 10v10h-2Zm32.483 7.439s1.042-.521 1.392-.688a2.086 2.086 0 0 0 .6-3.263 8.155 8.155 0 0 0-3.751-2.165 2.085 2.085 0 0 0-2.527 2.147c.03.385.1 1.544.1 1.544A4.47 4.47 0 0 0 36.037 26H33v-3.08a7 7 0 1 0-2 0V26h-3.037a4.47 4.47 0 0 0-4.255-4.986s.069-1.159.1-1.544a2.084 2.084 0 0 0-2.527-2.147 8.157 8.157 0 0 0-3.751 2.166 2.086 2.086 0 0 0 .595 3.262c.351.167 1.393.689 1.393.689A4.546 4.546 0 0 0 19.06 26H16V16c0-3.341 6.087-8 16-8s16 4.659 16 8v10h-3.06a4.55 4.55 0 0 0-.457-2.561Zm-2.148-2.024-.1-2.15a5.02 5.02 0 0 1 2.753 1.693l-1.857.918a2.627 2.627 0 0 0-.796-.461ZM42.927 26h-4.873a2.5 2.5 0 0 1 3.7-2.665A2.459 2.459 0 0 1 42.927 26ZM32 13.8a1 1 0 0 0 0 2 .6.6 0 0 1 0 1.2 3 3 0 0 1 0-6 5 5 0 1 1-4.9 4 5.009 5.009 0 0 0 4.9 4 2.6 2.6 0 1 0 0-5.2Zm-9.75 9.535A2.5 2.5 0 0 1 25.946 26h-4.873a2.459 2.459 0 0 1 1.177-2.665Zm-1.372-1.467-1.911-.989a5.03 5.03 0 0 1 2.844-1.538l-.133 2.069a2.633 2.633 0 0 0-.8.458Zm33.529 37.283a2.939 2.939 0 0 1-2.1.849h-4.375a22.8 22.8 0 0 0 2.919-4.565 1 1 0 0 0-1.8-.87A20.338 20.338 0 0 1 45.247 60H18.753a20.338 20.338 0 0 1-3.8-5.435 1 1 0 0 0-1.8.87A22.8 22.8 0 0 0 16.068 60h-4.125a2.935 2.935 0 0 1-2.1-.849C6.292 55.516 4.253 49.993 4.253 44s2.039-11.516 5.594-15.151a2.935 2.935 0 0 1 2.1-.849h4.125a22.8 22.8 0 0 0-2.919 4.565 1 1 0 0 0 1.8.87 20.338 20.338 0 0 1 3.8-5.435h26.5a20.571 20.571 0 0 1 3.795 5.437 1 1 0 0 0 1.8-.874A23.134 23.134 0 0 0 47.935 28h4.375a2.939 2.939 0 0 1 2.1.849C57.961 32.485 60 38.008 60 44s-2.039 11.515-5.593 15.151Z"></path>
    <path fill="white" d="M7.873 38.7a.994.994 0 0 0-1.176.785A23.112 23.112 0 0 0 6.253 44c0 .733.035 1.475.1 2.2a1 1 0 0 0 1.991-.189c-.065-.665-.1-1.342-.1-2.013a21.134 21.134 0 0 1 .4-4.128 1 1 0 0 0-.771-1.17zM28.536 42a1.979 1.979 0 0 0 1.732 1h3.464a2 2 0 0 0 1.732-3l-1.732-3a2 2 0 0 0-3.464 0l-1.732 3a1.977 1.977 0 0 0 0 2zM32 38l1.732 3h-3.464z"></path>
    <circle fill="white" cx="9" cy="36" r="1"></circle>
    <path fill="white" d="M22.135 37.355c.532-.536.782-.593.865-.593s.333.057.862.59a2.98 2.98 0 0 0 2.138.9 3 3 0 0 0 2.138-5.1 7.144 7.144 0 0 0-5.138-2.4 7.144 7.144 0 0 0-5.138 2.392 3.023 3.023 0 0 0 .034 4.242 3.14 3.14 0 0 0 2.127.862 2.982 2.982 0 0 0 2.112-.893zM19.3 35.96a1 1 0 0 1-.01-1.414A5.2 5.2 0 0 1 23 32.752a5.207 5.207 0 0 1 3.713 1.794 1 1 0 1 1-1.429 1.4A3.327 3.327 0 0 0 23 34.762a3.336 3.336 0 0 0-2.288 1.187 1 1 0 0 1-1.412.011zM41 30.752a7.144 7.144 0 0 0-5.138 2.392A3 3 0 0 0 38 38.248a2.98 2.98 0 0 0 2.138-.9c.529-.533.779-.59.862-.59s.333.057.865.593a2.982 2.982 0 0 0 2.112.893 3.14 3.14 0 0 0 2.127-.862 3.023 3.023 0 0 0 .034-4.242A7.144 7.144 0 0 0 41 30.752zm3.7 5.208a1 1 0 0 1-1.414-.011A3.336 3.336 0 0 0 41 34.762a3.327 3.327 0 0 0-2.284 1.184 1 1 0 1 1-1.429-1.4A5.207 5.207 0 0 1 41 32.752a5.2 5.2 0 0 1 3.712 1.794 1 1 0 0 1-.012 1.414zm-6.164 7.589a5.564 5.564 0 0 0-3.922 1.625c-1.391 1.389-2.235 1.6-2.614 1.6s-1.223-.208-2.614-1.6a5.547 5.547 0 1 0-7.844 7.844C25.584 57 29.443 57.87 32 57.87s6.415-.87 10.458-4.852a5.575 5.575 0 0 0-3.922-9.469zM39 45.626V46a1 1 0 1 1-2-.069 3.679 3.679 0 0 1 2-.305zm-13.884 6.941c-.091.154-.357.618-.357.618a17.613 17.613 0 0 1-1.54-1.331s.125-.214.165-.287a1 1 0 0 1 1.732 1zm11.022 2.44-.254-.44a1 1 0 1 1 1.732-1l.3.527a13.171 13.171 0 0 1-1.778.913zm4.906-3.4a18.7 18.7 0 0 1-1.484 1.331l-.212-.368a3 3 0 1 0-5.162 3.059A10.283 10.283 0 0 1 32 55.87a11.2 11.2 0 0 1-5.573-1.57s.314-.548.421-.73a3 3 0 0 0-4.791-3.538 3.491 3.491 0 0 1 .9-3.441 3.564 3.564 0 0 1 5.016 0c2.689 2.688 4.74 2.91 7.32.681a2.987 2.987 0 0 0 5.656-.758 3.544 3.544 0 0 1 .095 5.086z"></path>
  </g>
</svg>
